<?xml version="1.0" encoding="UTF-8" standalone="no"?>
<!-- Created with Inkscape (http://www.inkscape.org/) -->

<svg
   width="512"
   height="512"
   viewBox="0 0 135.46666 135.46667"
   version="1.1"
   id="svg1"
   xmlns="http://www.w3.org/2000/svg"
   xmlns:svg="http://www.w3.org/2000/svg">
  <defs
     id="defs1" />
  <g
     id="layer1">
    <circle
       style="fill:#f1ede4;fill-opacity:1;stroke:none;stroke-width:0;stroke-dasharray:none;stroke-opacity:0.361544"
       id="path1"
       cx="67.73333"
       cy="67.73333"
       r="67.73333" />
    <path
       id="text1"
       style="font-style:normal;font-variant:normal;font-weight:normal;font-stretch:normal;font-size:95.9556px;font-family:'EB Garamond';-inkscape-font-specification:'EB Garamond';writing-mode:lr-tb;direction:ltr;fill:#39162a;fill-opacity:1;stroke-width:0;stroke-dasharray:none;stroke-opacity:0.361544"
       d="m 27.011527,18.703253 c -0.831615,0 -1.503101,0.09593 -2.014864,0.287837 -0.511763,0.127941 -0.767395,0.383573 -0.767395,0.767395 0,0.447793 0.255632,0.831499 0.767395,1.151351 0.575733,0.319852 1.375293,0.63978 2.39882,0.959632 1.66323,0.447792 3.038866,1.2795 4.126363,2.494938 1.087497,1.215437 1.950835,2.718631 2.590539,4.509802 l 17.560169,47.114436 c 0.319852,0.831615 0.67141,1.855176 1.055232,3.070614 0.383823,1.151467 0.70375,2.079101 0.959632,2.782776 0.191911,0.447792 0.543986,0.671276 1.055749,0.671276 0.191911,0 0.383764,-0.06378 0.575676,-0.191719 0.191911,-0.127941 0.319468,-0.287646 0.383439,-0.479557 0.383822,-0.767645 0.768045,-1.727427 1.151867,-2.878894 l 1.055233,-3.166732 c 0.383823,-1.023527 0.639971,-1.695012 0.767912,-2.014864 l 7.219197,-17.511076 h 5.17e-4 c 0.394905,0.124916 0.859255,0.234528 1.39268,0.328662 2.430875,0.447793 3.997847,1.439206 4.701522,2.974496 0.767645,1.535289 1.151867,3.742116 1.151867,6.620784 v 40.49365 c 0,2.36691 -0.576076,4.06195 -1.727543,5.08548 -1.087496,1.02352 -2.846322,1.75931 -5.277197,2.2071 -2.111023,0.38382 -3.166732,0.95938 -3.166732,1.72703 0,0.38382 0.255632,0.63945 0.767395,0.76739 0.511764,0.19191 1.183766,0.28835 2.015381,0.28835 1.727201,0 3.198247,-0.0643 4.413684,-0.19223 1.279408,-0.12794 2.52697,-0.22387 3.742407,-0.28784 1.279408,-0.12794 2.718823,-0.19172 4.318083,-0.19172 1.215438,0 2.17522,0.0638 2.878894,0.19172 0.767645,0.064 1.598836,0.1599 2.494421,0.28784 0.959556,0.12794 2.303045,0.19223 4.030245,0.19223 0.831615,0 1.503618,-0.0964 2.015381,-0.28835 0.511763,-0.12794 0.767395,-0.38357 0.767395,-0.76739 0,-0.4478 -0.255632,-0.79987 -0.767395,-1.05575 -0.511763,-0.25589 -1.31184,-0.47937 -2.399337,-0.67128 -2.366904,-0.44779 -4.029803,-1.37543 -4.989359,-2.78278 -0.959556,-1.40735 -1.439705,-3.26261 -1.439705,-5.56555 V 59.861463 c 0,-1.471319 0.576076,-2.49488 1.727543,-3.070613 1.151467,-0.639704 2.622513,-0.959632 4.413684,-0.959632 4.669839,0 8.50845,1.247562 11.515059,3.742408 3.006609,2.430875 4.509799,6.205191 4.509799,11.322823 0,5.629395 -0.99141,10.043048 -2.97449,13.241568 -1.919114,3.19852 -4.797944,4.798157 -8.636168,4.798157 -1.279407,0 -2.270821,-0.03215 -2.974495,-0.09612 -0.639704,-0.06397 -1.119853,-0.09612 -1.439705,-0.09612 -0.319852,0 -0.671411,0.160222 -1.055233,0.480074 -0.319852,0.319852 -0.480074,0.607631 -0.480074,0.863513 0,0.383822 0.352075,0.799676 1.055749,1.247469 0.767645,0.383822 1.854985,0.575675 3.262334,0.575675 4.92572,0 8.956185,-0.991413 12.090732,-2.974495 3.19852,-1.983082 5.56506,-4.605763 7.10035,-7.868253 1.53529,-3.326461 2.30322,-6.941072 2.30322,-10.843266 0,-5.373514 -2.23898,-9.563683 -6.71691,-12.570292 -4.41396,-3.006609 -10.267543,-4.509802 -17.560168,-4.509802 -0.895586,0 -1.919147,0.06378 -3.070614,0.191719 -1.151467,0.06397 -2.398512,0.160414 -3.74189,0.288355 -1.279408,0.06397 -2.559118,0.0956 -3.838526,0.0956 h -3.070613 c -0.767645,-0.06397 -1.598836,-0.0956 -2.494422,-0.0956 h -3.756359 l 9.729121,-23.59856 c 0.703675,-1.7272 1.854793,-3.422764 3.454053,-5.085994 1.59926,-1.66323 3.582603,-2.75057 5.949508,-3.262333 1.087496,-0.255882 1.887056,-0.51203 2.39882,-0.767912 0.511763,-0.319852 0.767395,-0.703558 0.767395,-1.151351 0,-0.383822 -0.255632,-0.639454 -0.767395,-0.767395 -0.511764,-0.191911 -1.183766,-0.287837 -2.015381,-0.287837 -1.215438,0 -2.878337,0.06378 -4.98936,0.191719 -2.111023,0.06397 -4.094366,0.09612 -5.949507,0.09612 h -3.550171 c -1.087497,-0.06397 -2.143205,-0.09612 -3.166732,-0.09612 h -2.782776 c -0.831615,0 -1.503101,0.09593 -2.014864,0.287838 -0.511763,0.127941 -0.767395,0.384089 -0.767395,0.767912 0,0.447792 0.28778,0.86313 0.863513,1.246952 0.575734,0.319852 1.343146,0.543853 2.302702,0.671794 2.047053,0.255881 3.614542,1.183515 4.702039,2.782775 1.151467,1.53529 1.087171,3.998265 -0.192237,7.388697 L 57.813264,66.585084 c -0.191911,0.447793 -0.383764,0.639646 -0.575675,0.575675 -0.191912,-0.06397 -0.351617,-0.224192 -0.479558,-0.480074 L 42.94027,30.217795 c -0.127941,-0.447793 -0.351941,-1.0555 -0.671793,-1.823144 -0.255882,-0.831616 -0.38344,-1.791398 -0.38344,-2.878894 0,-1.087497 0.57556,-1.918688 1.727027,-2.494422 1.215437,-0.639704 2.718631,-1.055558 4.509802,-1.247469 1.087497,-0.127941 1.887057,-0.351942 2.39882,-0.671793 0.511763,-0.383823 0.767912,-0.799677 0.767912,-1.24747 0,-0.383822 -0.256149,-0.639971 -0.767912,-0.767911 -0.511763,-0.191912 -1.183249,-0.287838 -2.014864,-0.287838 -0.639704,0 -1.503043,0.03215 -2.59054,0.09612 -1.023526,0 -2.175161,0.03215 -3.454569,0.09612 h -3.742407 -4.318083 c -1.407349,-0.06397 -2.750837,-0.128266 -4.030245,-0.192236 -1.215437,-0.06397 -2.334925,-0.0956 -3.358451,-0.0956 z" />
  </g>
</svg>
